<svg width="128" height="128" viewBox="0 0 128 128" fill="none" xmlns="http://www.w3.org/2000/svg">
<rect width="128" height="128" rx="28" fill="#EFF0F0"/>
<path d="M0 28C0 12.536 12.536 0 28 0H100C115.464 0 128 12.536 128 28V43H0V28Z" fill="#FF6347"/>
<path d="M49.4531 22.3281V21.5781C49.4531 18.9115 48.9635 16.9844 47.9844 15.7969C47.0156 14.599 45.526 14 43.5156 14H42.3594C41.4844 14 40.9323 14.0729 40.7031 14.2188C40.474 14.3542 40.3594 14.7604 40.3594 15.4375L40.3281 15.8594C40.3073 16.1406 40.2969 16.4323 40.2969 16.7344V22.2031C40.2969 26.4531 40.3438 28.7552 40.4375 29.1094C40.5625 29.599 41.3177 29.8438 42.7031 29.8438L42.9219 29.8281C44.2031 29.8177 45.2292 29.6771 46 29.4062C47.5104 28.8646 48.4948 27.7188 48.9531 25.9688C49.2865 24.6875 49.4531 23.474 49.4531 22.3281ZM53.5625 21.4062V22.1875C53.5625 25.9583 52.7135 28.7188 51.0156 30.4688C49.3177 32.2188 46.6094 33.0938 42.8906 33.0938H40.7188C38.1146 33.0938 36.7083 32.9062 36.5 32.5312C36.3646 32.2812 36.2969 30.0104 36.2969 25.7188V15.1875L36.2812 14.8281V14.125L36.2656 12.7188V12.3594C36.2656 11.5781 36.5312 11.099 37.0625 10.9219C37.4167 10.8073 38.6927 10.75 40.8906 10.75H43.4531C48.4844 10.75 51.6094 12.6406 52.8281 16.4219C53.3177 17.9219 53.5625 19.5833 53.5625 21.4062ZM64.0781 24.0312H66.4688C67.4583 24.0312 67.9531 23.8854 67.9531 23.5938V23.5C67.9531 22.3229 67.2708 19.9583 65.9062 16.4062C65.6458 15.7292 65.4688 15.3906 65.375 15.3906C65.3333 15.3906 65.1562 15.75 64.8438 16.4688C63.2396 20.2083 62.4375 22.5938 62.4375 23.625C62.4375 23.8958 62.9844 24.0312 64.0781 24.0312ZM74.5781 32.0625C74.5781 32.6146 74.0677 32.8906 73.0469 32.8906C72.026 32.8906 71.2865 32.5729 70.8281 31.9375C70.5469 31.5417 70.2188 30.7865 69.8438 29.6719C69.4792 28.5469 69.2031 27.875 69.0156 27.6562C68.7031 27.3021 67.901 27.125 66.6094 27.125C63.9844 27.125 62.3177 27.3073 61.6094 27.6719C61.224 27.8698 60.8125 28.5833 60.375 29.8125C59.9375 31.0417 59.6146 31.7865 59.4062 32.0469C59.0104 32.5365 58.3385 32.7812 57.3906 32.7812C56.4531 32.7812 55.9844 32.5625 55.9844 32.125C55.9844 31.6875 56.9323 28.625 58.8281 22.9375C60.724 17.25 61.7135 14.3177 61.7969 14.1406C62.599 12.4948 63.1615 11.5312 63.4844 11.25C63.8177 10.9688 64.4427 10.8281 65.3594 10.8281C66.276 10.8385 66.8854 10.9583 67.1875 11.1875C67.9271 11.7604 69.0052 14.1302 70.4219 18.2969C71.849 22.4635 72.6823 25.0469 72.9219 26.0469C73.1615 27.0365 73.4948 28.2396 73.9219 29.6562C74.3594 31.0729 74.5781 31.875 74.5781 32.0625ZM75.5 12.1094C75.5 11.599 76.2448 11.3438 77.7344 11.3438C78.5469 11.3438 79.2344 11.7083 79.7969 12.4375C80.1927 12.9375 80.7708 13.8125 81.5312 15.0625C82.2917 16.3021 82.8646 17.3073 83.25 18.0781L83.75 19.1719C84.0625 19.8177 84.2396 20.1406 84.2812 20.1406C84.4688 20.1406 84.9844 19.401 85.8281 17.9219C86.6719 16.4323 87.3385 15.1875 87.8281 14.1875C88.3177 13.1875 88.7083 12.4948 89 12.1094C89.5729 11.3594 90.3958 10.9844 91.4688 10.9844C92.5521 10.9844 93.0938 11.1615 93.0938 11.5156C93.0938 11.9323 92.1146 13.9844 90.1562 17.6719C89.8854 18.1823 89.6094 18.6875 89.3281 19.1875L88.9062 19.9375C87.5521 22.3333 86.724 23.9479 86.4219 24.7812C86.1198 25.6042 85.9688 27.0208 85.9688 29.0312L85.9375 29.7656V30.875C85.9375 31.8125 85.849 32.4115 85.6719 32.6719C85.4948 32.9323 84.9531 33.0625 84.0469 33.0625C83.151 33.0625 82.6198 32.9583 82.4531 32.75C82.2865 32.5312 82.2031 31.9375 82.2031 30.9688L82.4219 26.1094C82.4219 25.0573 82.1823 24.0625 81.7031 23.125C80.7552 21.2396 79.4844 18.9583 77.8906 16.2812C76.2969 13.5938 75.5 12.2031 75.5 12.1094Z" fill="white"/>
<path d="M77.25 64L64 84L50.75 64" stroke="#292929" stroke-width="5" stroke-linecap="round" stroke-linejoin="round"/>
<path d="M39.5 64L64 104L88.5 64" stroke="#292929" stroke-width="5" stroke-linecap="round" stroke-linejoin="round"/>
</svg>
